<svg width="32" height="25" viewBox="0 0 32 25" fill="none" xmlns="http://www.w3.org/2000/svg">
<path fill-rule="evenodd" clip-rule="evenodd" d="M32 16.1937C32 16.8198 31.494 17.1119 30.5882 17.1119H28.8562V16.4857H30.5882C30.7478 16.4857 30.8547 16.4648 30.9346 16.4231C30.9878 16.3815 31.041 16.3185 31.041 16.2352C31.041 16.1309 30.9878 16.0681 30.9346 16.0264C30.8814 15.9848 30.7745 15.9639 30.6149 15.9639C29.7888 15.9429 28.7498 15.9848 28.7498 15.0664C28.7498 14.6494 29.0695 14.1901 30.0288 14.1901H31.814V14.8158H30.1616C30.002 14.8158 29.8957 14.8158 29.8152 14.8575C29.7088 14.9203 29.6821 14.9829 29.6821 15.0871C29.6821 15.1918 29.762 15.2542 29.8684 15.2959C29.9753 15.3168 30.0817 15.3168 30.2148 15.3375H30.6946C31.2011 15.3375 31.5207 15.4212 31.734 15.5672C31.8936 15.7137 32 15.9017 32 16.1937ZM28.2433 15.5676C28.03 15.4216 27.7104 15.3379 27.2044 15.3379H26.7246C26.5915 15.317 26.4846 15.317 26.3782 15.2963C26.2718 15.2546 26.1914 15.192 26.1914 15.0875C26.1914 14.9833 26.2181 14.9209 26.325 14.8579C26.4049 14.8162 26.5113 14.8162 26.6714 14.8162H28.3232V14.1905H26.5381C25.579 14.1905 25.2591 14.6496 25.2591 15.0668C25.2591 15.985 26.2986 15.9433 27.1242 15.9643C27.2843 15.9643 27.3642 15.9852 27.4439 16.0268C27.4976 16.0685 27.5508 16.1315 27.5508 16.2356C27.5508 16.3189 27.4976 16.3819 27.4439 16.4235C27.364 16.4652 27.2576 16.4861 27.0975 16.4861H25.366V17.1123H27.0975C28.0033 17.1123 28.5098 16.8202 28.5098 16.1941C28.5098 15.9017 28.4034 15.7137 28.2433 15.5676ZM24.8328 16.5067H22.7279V15.9226H24.7796V15.3172L22.7279 15.3381V14.7957H24.8328V14.1907H21.8486V17.1123H24.8328V16.5067ZM20.8895 14.3364C20.5963 14.2114 20.2502 14.1905 19.7969 14.1905H17.7457V17.1121H18.6516V16.0476H19.6106C19.9303 16.0476 20.1166 16.0685 20.2499 16.173C20.4095 16.3189 20.383 16.5697 20.383 16.757L20.4098 17.1121H21.2891V16.5487C21.2891 16.277 21.2624 16.152 21.156 16.0059C21.0761 15.9226 20.916 15.8179 20.7027 15.7555C20.9427 15.693 21.3421 15.4426 21.3421 14.9835C21.3421 14.6496 21.1825 14.4618 20.8895 14.3364ZM15.8269 14.1905H12.9761L11.8302 15.1505L10.7378 14.1905H7.14075V17.1121H10.6847L11.8302 16.152L12.9226 17.1121H14.6546V16.1313H15.7737C16.5465 16.1313 17.3189 15.9643 17.3189 15.1505C17.3189 14.3364 16.52 14.1905 15.8269 14.1905ZM20.1703 15.4009C20.0367 15.4426 19.9038 15.4426 19.717 15.4426H18.6516V14.7955H19.7437C19.9038 14.7955 20.0634 14.7955 20.1703 14.8581C20.2767 14.9002 20.3566 14.9835 20.3566 15.1085C20.3565 15.1652 20.3396 15.2211 20.3073 15.2718C20.275 15.3226 20.2281 15.3668 20.1703 15.4009ZM15.8269 15.5466H14.6546V14.7955H15.8269C16.1471 14.7955 16.3599 14.9002 16.3599 15.1505C16.3599 15.4009 16.1469 15.5466 15.8269 15.5466ZM12.3897 15.6513L13.7753 14.5035V16.8615L12.3897 15.6513ZM10.2316 16.5067H8.02011V15.9226H9.99186V15.3172L8.02011 15.3381V14.7957H10.2583L11.2441 15.6515L10.2316 16.5067ZM29.522 12.0827H28.2431L26.5648 9.89132V12.0827H24.7529L24.4065 11.4356H22.5408L22.1945 12.0827H21.1555C20.7289 12.0827 20.1698 11.999 19.8501 11.7486C19.5569 11.4982 19.3968 11.1643 19.3968 10.6426C19.3968 10.2043 19.4767 9.80799 19.8766 9.49483C20.143 9.26539 20.5958 9.16093 21.2352 9.16093H22.0878V9.78706H21.2352C20.9155 9.78706 20.7287 9.80799 20.5426 9.95391C20.3825 10.0791 20.2761 10.3087 20.2761 10.6217C20.2761 10.9347 20.3561 11.1434 20.5426 11.3102C20.6757 11.4145 20.9155 11.4563 21.1555 11.4563H21.5551L22.8341 9.16073H24.1667L25.659 11.9154V9.16113H27.0443L28.6162 11.1854V9.16113H29.522V12.0827ZM18.9445 9.16113H18.0387V12.0829H18.9445V9.16113ZM17.0524 9.28632C16.7597 9.16093 16.4396 9.16093 15.9868 9.16093H13.9354V12.0827H14.8145V11.0182H15.7737C16.0934 11.0182 16.3067 11.0391 16.4131 11.1434C16.5999 11.2895 16.5732 11.5399 16.5732 11.7069V12.0827H17.479V11.4982C17.479 11.2478 17.4523 11.1017 17.3189 10.9765C17.239 10.893 17.0794 10.7886 16.8928 10.7262C17.1061 10.6426 17.5322 10.413 17.5322 9.93318C17.5322 9.62001 17.3456 9.43244 17.0524 9.28632ZM13.2958 11.4775H11.2176V10.8932H13.2426V10.288H11.2176V9.76633H13.2958V9.16113H10.3115V12.0829H13.2958V11.4775ZM9.64546 9.16113H8.17994L7.08756 11.1436L5.91525 9.16113H4.47646V11.9158L2.95775 9.16113H1.62535L0.0267252 12.0829H0.985746L1.33214 11.4358H3.19725L3.54365 12.0829H5.3553V9.78706L6.66098 12.0827H7.4337L8.73937 9.78706V12.0827H9.6452V9.16113H9.64546ZM24.087 10.8097L23.4742 9.64095L22.8613 10.8097H24.087ZM16.3332 10.3506C16.2268 10.4132 16.0667 10.4132 15.9068 10.4132H14.8145V9.76633H15.9068C16.0667 9.76633 16.2268 9.76633 16.3332 9.80799C16.4668 9.87059 16.52 9.95411 16.52 10.0793C16.52 10.2045 16.4668 10.3087 16.3332 10.3506ZM1.65207 10.8097L2.26495 9.64095L2.87783 10.8097H1.65207ZM31.7872 0H0.000256831V10.5176L1.09265 8.57686H3.41079L3.73047 9.05688V8.57686H6.44821L7.06109 9.62021L7.64724 8.57686H16.3067C16.7063 8.57686 17.0524 8.63945 17.3189 8.8065V8.57686H19.6905V8.8065C20.0901 8.63945 20.5963 8.57686 21.1827 8.57686H24.6198L24.9394 9.05688V8.57686H27.4711L27.844 9.05688V8.57686H30.322V12.6669H27.8175L27.3377 12.0412V12.6669H24.2204L23.874 11.9992H23.101L22.7546 12.6669H21.1296C20.4902 12.6669 20.0104 12.542 19.6905 12.3956V12.6669H15.8269V11.7278C15.8269 11.6027 15.8002 11.5817 15.6936 11.5817H15.5604V12.6667H8.10003V12.1451L7.83355 12.6667H6.26165L5.99517 12.166V12.6667H2.98422L2.63782 11.999H1.89183L1.54543 12.6667H0V25H31.787V17.5084C31.4406 17.6333 30.9608 17.6959 30.481 17.6959H28.1631V17.4456C27.8967 17.6126 27.4169 17.6959 26.9641 17.6959H19.6635V16.7359C19.6635 16.6316 19.6368 16.6316 19.5034 16.6316H19.3703V17.6957H16.9723V16.59C16.5727 16.7359 16.1196 16.7359 15.72 16.7359H15.4535V17.6959H12.523L11.8038 17.0702L11.0578 17.6959H6.34156V13.6058H11.1377L11.8305 14.232L12.5765 13.6058H15.8005C16.1733 13.6058 16.786 13.6475 17.0527 13.8562V13.6058H19.9305C20.2237 13.6058 20.7832 13.6475 21.1563 13.8562V13.6058H25.4991V13.8562C25.7391 13.6896 26.1917 13.6058 26.5918 13.6058H29.0166V13.8562C29.283 13.7103 29.6559 13.6058 30.1354 13.6058H31.7877V0H31.7872Z" fill="white"/>
</svg>

