<svg width="364" height="234" viewBox="0 0 364 234" fill="none" xmlns="http://www.w3.org/2000/svg">
<g filter="url(#filter0_b_3402_188)">
<rect x="2" y="2" width="360" height="230" rx="15.1928" fill="url(#paint0_linear_3402_188)"/>
<rect x="1.36697" y="1.36697" width="361.266" height="231.266" rx="15.8259" stroke="url(#paint1_radial_3402_188)" stroke-width="1.26607"/>
<rect x="1.36697" y="1.36697" width="361.266" height="231.266" rx="15.8259" stroke="url(#paint2_linear_3402_188)" stroke-opacity="0.4" stroke-width="1.26607"/>
<rect x="1.36697" y="1.36697" width="361.266" height="231.266" rx="15.8259" stroke="url(#paint3_linear_3402_188)" stroke-width="1.26607"/>
</g>
<mask id="mask0_3402_188" style="mask-type:alpha" maskUnits="userSpaceOnUse" x="2" y="2" width="360" height="230">
<rect x="2" y="2" width="360" height="230" rx="15.4011" fill="#16084C"/>
</mask>
<g mask="url(#mask0_3402_188)">
<g filter="url(#filter1_f_3402_188)">
<path d="M453.518 -133.506C475.881 -87.3533 416.166 -11.492 320.142 35.9346C224.118 83.3613 128.147 84.3937 105.784 38.2406C83.4215 -7.91245 143.136 -83.7738 239.16 -131.2C335.184 -178.627 431.156 -179.659 453.518 -133.506Z" fill="#66A7E2"/>
</g>
<g filter="url(#filter2_f_3402_188)">
<path d="M401.134 -167.756C423.497 -121.603 363.783 -45.742 267.758 1.68464C171.734 49.1113 75.7629 50.1437 53.4003 3.99062C31.0377 -42.1624 90.7521 -118.024 186.776 -165.45C282.8 -212.877 378.772 -213.909 401.134 -167.756Z" fill="#66A7E2"/>
</g>
</g>
<path fill-rule="evenodd" clip-rule="evenodd" d="M23.3845 38.7647L23.3807 38.7699L23.3771 38.7751C23.1722 39.0652 22.7132 39.1504 22.3542 38.8969C22.0669 38.694 21.9805 38.2418 22.2252 37.8844C22.5903 37.4191 22.8554 36.8751 23.0295 36.3432C23.2108 35.7896 23.2951 35.1604 23.2918 34.5434C23.2886 33.9263 23.1976 33.2981 23.0104 32.7464C22.8306 32.2164 22.5597 31.6752 22.1897 31.2138C21.9412 30.8591 22.0228 30.406 22.3079 30.2C22.6642 29.9427 23.124 30.0231 23.332 30.311L23.3357 30.3161L23.3396 30.3212C23.8001 30.9285 24.1778 31.6032 24.4035 32.2651C24.6411 33.0438 24.7925 33.797 24.7964 34.5353C24.8005 35.3123 24.7263 36.0477 24.4412 36.7716C24.1307 37.56 23.83 38.1642 23.3845 38.7647ZM26.7142 40.2068L26.7232 40.1941L26.7314 40.1808C27.7521 38.5455 28.3408 36.5722 28.3299 34.5165C28.3189 32.4613 27.7095 30.4949 26.672 28.8708C26.4471 28.5142 26.5481 28.0926 26.9271 27.8188C27.1817 27.635 27.6595 27.7001 27.943 28.08C29.1145 29.9386 29.8221 32.1854 29.8344 34.5085C29.8472 36.9109 29.1641 39.0848 28.0115 40.9569C27.7449 41.3239 27.3367 41.4268 26.9847 41.2188C26.603 40.9391 26.5333 40.4629 26.7142 40.2068ZM32.6892 25.6371L32.6992 25.6569L32.7109 25.6759C34.2982 28.2638 35.1803 31.2489 35.1975 34.48C35.2147 37.7095 34.3652 40.7025 32.8069 43.3064C32.568 43.6905 32.1647 43.7988 31.7558 43.6085C31.3836 43.366 31.2836 42.964 31.478 42.5581C32.8033 40.2045 33.6274 37.431 33.6117 34.4884C33.5961 31.5589 32.8301 28.7899 31.3894 26.4361C31.1944 26.0342 31.291 25.6339 31.6587 25.3886C32.1024 25.1767 32.5346 25.332 32.6892 25.6371ZM37.3892 23.1742L37.396 23.1878L37.4037 23.201C39.3272 26.5259 40.4573 30.3274 40.4793 34.4518C40.5012 38.5721 39.4139 42.3817 37.5295 45.7245C37.2901 46.1042 36.8887 46.2106 36.4817 46.0212C36.1107 45.7794 36.0102 45.3792 36.2022 44.9746C38.0176 41.8762 38.9951 38.2866 38.9748 34.4598C38.9543 30.6232 37.8525 27.0475 36.0925 23.9797C35.872 23.5319 36.0274 23.0933 36.3352 22.9373C36.787 22.7084 37.2319 22.8638 37.3892 23.1742Z" fill="white"/>
<path fill-rule="evenodd" clip-rule="evenodd" d="M342 38.1937C342 38.8198 341.494 39.1119 340.588 39.1119H338.856V38.4857H340.588C340.748 38.4857 340.855 38.4648 340.935 38.4231C340.988 38.3815 341.041 38.3185 341.041 38.2352C341.041 38.1309 340.988 38.0681 340.935 38.0264C340.881 37.9848 340.774 37.9639 340.615 37.9639C339.789 37.9429 338.75 37.9848 338.75 37.0664C338.75 36.6494 339.069 36.1901 340.029 36.1901H341.814V36.8158H340.162C340.002 36.8158 339.896 36.8158 339.815 36.8575C339.709 36.9203 339.682 36.9829 339.682 37.0871C339.682 37.1918 339.762 37.2542 339.868 37.2959C339.975 37.3168 340.082 37.3168 340.215 37.3375H340.695C341.201 37.3375 341.521 37.4212 341.734 37.5672C341.894 37.7137 342 37.9017 342 38.1937V38.1937ZM338.243 37.5676C338.03 37.4216 337.71 37.3379 337.204 37.3379H336.725C336.592 37.317 336.485 37.317 336.378 37.2963C336.272 37.2546 336.191 37.192 336.191 37.0875C336.191 36.9833 336.218 36.9209 336.325 36.8579C336.405 36.8162 336.511 36.8162 336.671 36.8162H338.323V36.1905H336.538C335.579 36.1905 335.259 36.6496 335.259 37.0668C335.259 37.985 336.299 37.9433 337.124 37.9643C337.284 37.9643 337.364 37.9852 337.444 38.0268C337.498 38.0685 337.551 38.1315 337.551 38.2356C337.551 38.3189 337.498 38.3819 337.444 38.4235C337.364 38.4652 337.258 38.4861 337.097 38.4861H335.366V39.1123H337.097C338.003 39.1123 338.51 38.8202 338.51 38.1941C338.51 37.9017 338.403 37.7137 338.243 37.5676V37.5676ZM334.833 38.5067H332.728V37.9226H334.78V37.3172L332.728 37.3381V36.7957H334.833V36.1907H331.849V39.1123H334.833V38.5067V38.5067ZM330.89 36.3364C330.596 36.2114 330.25 36.1905 329.797 36.1905H327.746V39.1121H328.652V38.0476H329.611C329.93 38.0476 330.117 38.0685 330.25 38.173C330.41 38.3189 330.383 38.5697 330.383 38.757L330.41 39.1121H331.289V38.5487C331.289 38.277 331.262 38.152 331.156 38.0059C331.076 37.9226 330.916 37.8179 330.703 37.7555C330.943 37.693 331.342 37.4426 331.342 36.9835C331.342 36.6496 331.182 36.4618 330.89 36.3364V36.3364ZM325.827 36.1905H322.976L321.83 37.1505L320.738 36.1905H317.141V39.1121H320.685L321.83 38.152L322.923 39.1121H324.655V38.1313H325.774C326.546 38.1313 327.319 37.9643 327.319 37.1505C327.319 36.3364 326.52 36.1905 325.827 36.1905ZM330.17 37.4009C330.037 37.4426 329.904 37.4426 329.717 37.4426H328.652V36.7955H329.744C329.904 36.7955 330.063 36.7955 330.17 36.8581C330.277 36.9002 330.357 36.9835 330.357 37.1085C330.356 37.1652 330.34 37.2211 330.307 37.2718C330.275 37.3226 330.228 37.3668 330.17 37.4009V37.4009ZM325.827 37.5466H324.655V36.7955H325.827C326.147 36.7955 326.36 36.9002 326.36 37.1505C326.36 37.4009 326.147 37.5466 325.827 37.5466ZM322.39 37.6513L323.775 36.5035V38.8615L322.39 37.6513V37.6513ZM320.232 38.5067H318.02V37.9226H319.992V37.3172L318.02 37.3381V36.7957H320.258L321.244 37.6515L320.232 38.5067V38.5067ZM339.522 34.0827H338.243L336.565 31.8913V34.0827H334.753L334.406 33.4356H332.541L332.194 34.0827H331.156C330.729 34.0827 330.17 33.999 329.85 33.7486C329.557 33.4982 329.397 33.1643 329.397 32.6426C329.397 32.2043 329.477 31.808 329.877 31.4948C330.143 31.2654 330.596 31.1609 331.235 31.1609H332.088V31.7871H331.235C330.915 31.7871 330.729 31.808 330.543 31.9539C330.383 32.0791 330.276 32.3087 330.276 32.6217C330.276 32.9347 330.356 33.1434 330.543 33.3102C330.676 33.4145 330.915 33.4563 331.156 33.4563H331.555L332.834 31.1607H334.167L335.659 33.9154V31.1611H337.044L338.616 33.1854V31.1611H339.522V34.0827V34.0827ZM328.945 31.1611H328.039V34.0829H328.945V31.1611ZM327.052 31.2863C326.76 31.1609 326.44 31.1609 325.987 31.1609H323.935V34.0827H324.814V33.0182H325.774C326.093 33.0182 326.307 33.0391 326.413 33.1434C326.6 33.2895 326.573 33.5399 326.573 33.7069V34.0827H327.479V33.4982C327.479 33.2478 327.452 33.1017 327.319 32.9765C327.239 32.893 327.079 32.7886 326.893 32.7262C327.106 32.6426 327.532 32.413 327.532 31.9332C327.532 31.62 327.346 31.4324 327.052 31.2863ZM323.296 33.4775H321.218V32.8932H323.243V32.288H321.218V31.7663H323.296V31.1611H320.312V34.0829H323.296V33.4775ZM319.645 31.1611H318.18L317.088 33.1436L315.915 31.1611H314.476V33.9158L312.958 31.1611H311.625L310.027 34.0829H310.986L311.332 33.4358H313.197L313.544 34.0829H315.355V31.7871L316.661 34.0827H317.434L318.739 31.7871V34.0827H319.645V31.1611H319.645V31.1611ZM334.087 32.8097L333.474 31.6409L332.861 32.8097H334.087ZM326.333 32.3506C326.227 32.4132 326.067 32.4132 325.907 32.4132H324.814V31.7663H325.907C326.067 31.7663 326.227 31.7663 326.333 31.808C326.467 31.8706 326.52 31.9541 326.52 32.0793C326.52 32.2045 326.467 32.3087 326.333 32.3506ZM311.652 32.8097L312.265 31.6409L312.878 32.8097H311.652ZM341.787 22H310V32.5176L311.093 30.5769H313.411L313.73 31.0569V30.5769H316.448L317.061 31.6202L317.647 30.5769H326.307C326.706 30.5769 327.052 30.6395 327.319 30.8065V30.5769H329.691V30.8065C330.09 30.6395 330.596 30.5769 331.183 30.5769H334.62L334.939 31.0569V30.5769H337.471L337.844 31.0569V30.5769H340.322V34.6669H337.818L337.338 34.0412V34.6669H334.22L333.874 33.9992H333.101L332.755 34.6669H331.13C330.49 34.6669 330.01 34.542 329.691 34.3956V34.6669H325.827V33.7278C325.827 33.6027 325.8 33.5817 325.694 33.5817H325.56V34.6667H318.1V34.1451L317.834 34.6667H316.262L315.995 34.166V34.6667H312.984L312.638 33.999H311.892L311.545 34.6667H310V47H341.787V39.5084C341.441 39.6333 340.961 39.6959 340.481 39.6959H338.163V39.4456C337.897 39.6126 337.417 39.6959 336.964 39.6959H329.664V38.7359C329.664 38.6316 329.637 38.6316 329.503 38.6316H329.37V39.6957H326.972V38.59C326.573 38.7359 326.12 38.7359 325.72 38.7359H325.454V39.6959H322.523L321.804 39.0702L321.058 39.6959H316.342V35.6058H321.138L321.83 36.232L322.576 35.6058H325.8C326.173 35.6058 326.786 35.6475 327.053 35.8562V35.6058H329.931C330.224 35.6058 330.783 35.6475 331.156 35.8562V35.6058H335.499V35.8562C335.739 35.6896 336.192 35.6058 336.592 35.6058H339.017V35.8562C339.283 35.7103 339.656 35.6058 340.135 35.6058H341.788V22H341.787V22Z" fill="white"/>
<g filter="url(#filter3_di_3402_188)">
<path d="M23.1506 106.932V104.026L30.4375 92.5455H32.9432V96.5682H31.4602L26.8665 103.838V103.974H37.2216V106.932H23.1506ZM31.5284 110V106.045L31.5966 104.759V92.5455H35.0568V110H31.5284ZM40.6404 110V107.341L46.8535 101.588C47.3819 101.077 47.8251 100.616 48.183 100.207C48.5466 99.7983 48.8222 99.3977 49.0097 99.0057C49.1972 98.608 49.291 98.179 49.291 97.7188C49.291 97.2074 49.1745 96.767 48.9415 96.3977C48.7086 96.0227 48.3904 95.7358 47.987 95.5369C47.5836 95.3324 47.1262 95.2301 46.6148 95.2301C46.0807 95.2301 45.6148 95.3381 45.2171 95.554C44.8194 95.7699 44.5126 96.0795 44.2966 96.483C44.0807 96.8864 43.9728 97.3665 43.9728 97.9233H40.4699C40.4699 96.7812 40.7285 95.7898 41.2455 94.9489C41.7626 94.108 42.487 93.4574 43.4188 92.9972C44.3506 92.5369 45.4245 92.3068 46.6404 92.3068C47.8904 92.3068 48.9785 92.5284 49.9046 92.9716C50.8364 93.4091 51.5609 94.017 52.0779 94.7955C52.5949 95.5739 52.8535 96.4659 52.8535 97.4716C52.8535 98.1307 52.7228 98.7812 52.4614 99.4233C52.2057 100.065 51.7484 100.778 51.0893 101.562C50.4302 102.341 49.5012 103.276 48.3023 104.366L45.754 106.864V106.983H53.0836V110H40.6404ZM56.0784 106.932V104.026L63.3653 92.5455H65.871V96.5682H64.388L59.7943 103.838V103.974H70.1494V106.932H56.0784ZM64.4562 110V106.045L64.5244 104.759V92.5455H67.9846V110H64.4562ZM73.5682 110V107.341L79.7813 101.588C80.3097 101.077 80.7529 100.616 81.1108 100.207C81.4745 99.7983 81.75 99.3977 81.9375 99.0057C82.125 98.608 82.2188 98.179 82.2188 97.7188C82.2188 97.2074 82.1023 96.767 81.8693 96.3977C81.6364 96.0227 81.3182 95.7358 80.9148 95.5369C80.5114 95.3324 80.054 95.2301 79.5426 95.2301C79.0086 95.2301 78.5426 95.3381 78.1449 95.554C77.7472 95.7699 77.4404 96.0795 77.2245 96.483C77.0086 96.8864 76.9006 97.3665 76.9006 97.9233H73.3978C73.3978 96.7812 73.6563 95.7898 74.1733 94.9489C74.6904 94.108 75.4148 93.4574 76.3466 92.9972C77.2784 92.5369 78.3523 92.3068 79.5682 92.3068C80.8182 92.3068 81.9063 92.5284 82.8324 92.9716C83.7642 93.4091 84.4887 94.017 85.0057 94.7955C85.5228 95.5739 85.7813 96.4659 85.7813 97.4716C85.7813 98.1307 85.6506 98.7812 85.3892 99.4233C85.1336 100.065 84.6762 100.778 84.0171 101.562C83.358 102.341 82.429 103.276 81.2301 104.366L78.6818 106.864V106.983H86.0114V110H73.5682ZM95.8959 106.932V104.026L103.183 92.5455H105.688V96.5682H104.206L99.6118 103.838V103.974H109.967V106.932H95.8959ZM104.274 110V106.045L104.342 104.759V92.5455H107.802V110H104.274ZM119.761 110.239C118.556 110.239 117.482 110.017 116.539 109.574C115.602 109.131 114.857 108.52 114.306 107.741C113.755 106.963 113.468 106.071 113.445 105.065H117.025C117.065 105.741 117.349 106.29 117.877 106.71C118.406 107.131 119.033 107.341 119.761 107.341C120.34 107.341 120.852 107.213 121.295 106.957C121.744 106.696 122.093 106.335 122.343 105.875C122.599 105.409 122.727 104.875 122.727 104.273C122.727 103.659 122.596 103.119 122.335 102.653C122.079 102.187 121.724 101.824 121.269 101.562C120.815 101.301 120.295 101.168 119.71 101.162C119.198 101.162 118.701 101.267 118.218 101.477C117.741 101.687 117.369 101.974 117.102 102.338L113.82 101.75L114.647 92.5455H125.318V95.5625H117.69L117.238 99.9347H117.34C117.647 99.5028 118.11 99.1449 118.729 98.8608C119.349 98.5767 120.042 98.4347 120.809 98.4347C121.86 98.4347 122.798 98.6818 123.622 99.1761C124.445 99.6705 125.096 100.349 125.573 101.213C126.05 102.071 126.286 103.06 126.281 104.179C126.286 105.355 126.014 106.401 125.462 107.315C124.917 108.224 124.153 108.94 123.17 109.463C122.193 109.98 121.056 110.239 119.761 110.239ZM136.513 110.239C135.616 110.233 134.749 110.082 133.914 109.787C133.084 109.491 132.34 109.011 131.681 108.347C131.022 107.682 130.499 106.801 130.113 105.705C129.732 104.608 129.542 103.261 129.542 101.665C129.547 100.199 129.715 98.8892 130.045 97.7358C130.38 96.5767 130.857 95.5937 131.476 94.7869C132.101 93.9801 132.849 93.3665 133.718 92.946C134.587 92.5199 135.562 92.3068 136.641 92.3068C137.806 92.3068 138.834 92.5341 139.726 92.9886C140.618 93.4375 141.334 94.0483 141.874 94.821C142.42 95.5938 142.749 96.4602 142.863 97.4205H139.224C139.082 96.8125 138.783 96.3352 138.329 95.9886C137.874 95.642 137.312 95.4688 136.641 95.4688C135.505 95.4688 134.641 95.9631 134.05 96.9517C133.465 97.9403 133.167 99.2841 133.155 100.983H133.275C133.536 100.466 133.888 100.026 134.332 99.6619C134.78 99.2926 135.289 99.0114 135.857 98.8182C136.431 98.6193 137.036 98.5199 137.672 98.5199C138.707 98.5199 139.627 98.7642 140.434 99.2528C141.241 99.7358 141.877 100.401 142.343 101.247C142.809 102.094 143.042 103.062 143.042 104.153C143.042 105.335 142.766 106.386 142.215 107.307C141.67 108.227 140.905 108.949 139.922 109.472C138.945 109.989 137.809 110.244 136.513 110.239ZM136.496 107.341C137.064 107.341 137.573 107.205 138.022 106.932C138.471 106.659 138.823 106.29 139.079 105.824C139.334 105.358 139.462 104.835 139.462 104.256C139.462 103.676 139.334 103.156 139.079 102.696C138.829 102.236 138.482 101.869 138.039 101.597C137.596 101.324 137.09 101.188 136.522 101.188C136.096 101.188 135.701 101.267 135.337 101.426C134.979 101.585 134.664 101.807 134.391 102.091C134.124 102.375 133.914 102.705 133.76 103.08C133.607 103.449 133.53 103.844 133.53 104.264C133.53 104.827 133.658 105.341 133.914 105.807C134.175 106.273 134.528 106.645 134.971 106.923C135.42 107.202 135.928 107.341 136.496 107.341ZM146.618 110V107.341L152.831 101.588C153.36 101.077 153.803 100.616 154.161 100.207C154.524 99.7983 154.8 99.3977 154.988 99.0057C155.175 98.608 155.269 98.179 155.269 97.7188C155.269 97.2074 155.152 96.767 154.919 96.3977C154.686 96.0227 154.368 95.7358 153.965 95.5369C153.561 95.3324 153.104 95.2301 152.593 95.2301C152.059 95.2301 151.593 95.3381 151.195 95.554C150.797 95.7699 150.49 96.0795 150.274 96.483C150.059 96.8864 149.951 97.3665 149.951 97.9233H146.448C146.448 96.7812 146.706 95.7898 147.223 94.9489C147.74 94.108 148.465 93.4574 149.397 92.9972C150.328 92.5369 151.402 92.3068 152.618 92.3068C153.868 92.3068 154.956 92.5284 155.882 92.9716C156.814 93.4091 157.539 94.017 158.056 94.7955C158.573 95.5739 158.831 96.4659 158.831 97.4716C158.831 98.1307 158.701 98.7812 158.439 99.4233C158.184 100.065 157.726 100.778 157.067 101.562C156.408 102.341 155.479 103.276 154.28 104.366L151.732 106.864V106.983H159.061V110H146.618ZM169.9 110L177.136 95.6818V95.5625H168.707V92.5455H180.954V95.6051L173.71 110H169.9ZM185.603 110L192.838 95.6818V95.5625H184.409V92.5455H196.657V95.6051L189.412 110H185.603ZM207.739 92.5455V110H204.049V96.0483H203.947L199.95 98.554V95.2812L204.271 92.5455H207.739ZM219.692 110.384C218.226 110.378 216.964 110.017 215.908 109.301C214.856 108.585 214.047 107.548 213.479 106.19C212.916 104.832 212.638 103.199 212.643 101.29C212.643 99.3864 212.925 97.7642 213.487 96.4233C214.055 95.0824 214.865 94.0625 215.916 93.3636C216.973 92.6591 218.231 92.3068 219.692 92.3068C221.152 92.3068 222.408 92.6591 223.459 93.3636C224.516 94.0682 225.328 95.0909 225.896 96.4318C226.464 97.767 226.746 99.3864 226.74 101.29C226.74 103.205 226.456 104.841 225.888 106.199C225.325 107.557 224.518 108.594 223.467 109.31C222.416 110.026 221.158 110.384 219.692 110.384ZM219.692 107.324C220.692 107.324 221.49 106.821 222.087 105.815C222.683 104.81 222.979 103.301 222.973 101.29C222.973 99.9659 222.837 98.8636 222.564 97.983C222.297 97.1023 221.916 96.4403 221.422 95.9972C220.933 95.554 220.356 95.3324 219.692 95.3324C218.697 95.3324 217.902 95.8295 217.305 96.8239C216.709 97.8182 216.408 99.3068 216.402 101.29C216.402 102.631 216.535 103.75 216.802 104.648C217.075 105.54 217.459 106.21 217.953 106.659C218.447 107.102 219.027 107.324 219.692 107.324ZM243.298 110.239C242.025 110.239 240.891 110.02 239.897 109.582C238.909 109.139 238.127 108.531 237.553 107.759C236.985 106.98 236.693 106.082 236.676 105.065H240.391C240.414 105.491 240.553 105.866 240.809 106.19C241.07 106.509 241.417 106.756 241.849 106.932C242.281 107.108 242.766 107.196 243.306 107.196C243.869 107.196 244.366 107.097 244.798 106.898C245.23 106.699 245.568 106.423 245.812 106.071C246.056 105.719 246.178 105.312 246.178 104.852C246.178 104.386 246.048 103.974 245.786 103.616C245.531 103.253 245.161 102.969 244.678 102.764C244.201 102.56 243.633 102.457 242.974 102.457H241.346V99.7472H242.974C243.531 99.7472 244.022 99.6506 244.448 99.4574C244.88 99.2642 245.215 98.9972 245.454 98.6562C245.693 98.3097 245.812 97.9062 245.812 97.446C245.812 97.0085 245.707 96.625 245.497 96.2955C245.292 95.9602 245.002 95.6989 244.627 95.5114C244.258 95.3239 243.826 95.2301 243.332 95.2301C242.832 95.2301 242.374 95.321 241.96 95.5028C241.545 95.679 241.212 95.9318 240.962 96.2614C240.712 96.5909 240.579 96.9773 240.562 97.4205H237.025C237.042 96.4148 237.329 95.5284 237.886 94.7614C238.443 93.9943 239.193 93.3949 240.136 92.9631C241.085 92.5256 242.156 92.3068 243.349 92.3068C244.553 92.3068 245.607 92.5256 246.511 92.9631C247.414 93.4006 248.116 93.9915 248.616 94.7358C249.122 95.4744 249.372 96.304 249.366 97.2244C249.372 98.2017 249.068 99.017 248.454 99.6705C247.846 100.324 247.053 100.739 246.076 100.915V101.051C247.36 101.216 248.337 101.662 249.008 102.389C249.684 103.111 250.019 104.014 250.014 105.099C250.019 106.094 249.732 106.977 249.153 107.75C248.579 108.523 247.786 109.131 246.775 109.574C245.764 110.017 244.605 110.239 243.298 110.239ZM260.001 110.239C258.797 110.239 257.723 110.017 256.78 109.574C255.842 109.131 255.098 108.52 254.547 107.741C253.996 106.963 253.709 106.071 253.686 105.065H257.266C257.305 105.741 257.589 106.29 258.118 106.71C258.646 107.131 259.274 107.341 260.001 107.341C260.581 107.341 261.092 107.213 261.535 106.957C261.984 106.696 262.334 106.335 262.584 105.875C262.839 105.409 262.967 104.875 262.967 104.273C262.967 103.659 262.837 103.119 262.575 102.653C262.32 102.187 261.964 101.824 261.51 101.562C261.055 101.301 260.535 101.168 259.95 101.162C259.439 101.162 258.942 101.267 258.459 101.477C257.981 101.687 257.609 101.974 257.342 102.338L254.061 101.75L254.888 92.5455H265.558V95.5625H257.93L257.479 99.9347H257.581C257.888 99.5028 258.351 99.1449 258.97 98.8608C259.589 98.5767 260.283 98.4347 261.05 98.4347C262.101 98.4347 263.038 98.6818 263.862 99.1761C264.686 99.6705 265.337 100.349 265.814 101.213C266.291 102.071 266.527 103.06 266.521 104.179C266.527 105.355 266.254 106.401 265.703 107.315C265.158 108.224 264.393 108.94 263.41 109.463C262.433 109.98 261.297 110.239 260.001 110.239ZM276.899 110.384C275.433 110.378 274.172 110.017 273.115 109.301C272.064 108.585 271.254 107.548 270.686 106.19C270.123 104.832 269.845 103.199 269.851 101.29C269.851 99.3864 270.132 97.7642 270.694 96.4233C271.262 95.0824 272.072 94.0625 273.123 93.3636C274.18 92.6591 275.439 92.3068 276.899 92.3068C278.359 92.3068 279.615 92.6591 280.666 93.3636C281.723 94.0682 282.535 95.0909 283.103 96.4318C283.672 97.767 283.953 99.3864 283.947 101.29C283.947 103.205 283.663 104.841 283.095 106.199C282.532 107.557 281.726 108.594 280.674 109.31C279.623 110.026 278.365 110.384 276.899 110.384ZM276.899 107.324C277.899 107.324 278.697 106.821 279.294 105.815C279.89 104.81 280.186 103.301 280.18 101.29C280.18 99.9659 280.044 98.8636 279.771 97.983C279.504 97.1023 279.123 96.4403 278.629 95.9972C278.14 95.554 277.564 95.3324 276.899 95.3324C275.905 95.3324 275.109 95.8295 274.512 96.8239C273.916 97.8182 273.615 99.3068 273.609 101.29C273.609 102.631 273.743 103.75 274.01 104.648C274.282 105.54 274.666 106.21 275.16 106.659C275.655 107.102 276.234 107.324 276.899 107.324ZM287.76 110L294.996 95.6818V95.5625H286.567V92.5455H298.814V95.6051L291.57 110H287.76Z" fill="#E8E8E8"/>
</g>
<path d="M28.6477 134.016V141.289H27.7955L23.8324 135.578H23.7614V141.289H22.8807V134.016H23.733L27.7102 139.74H27.7812V134.016H28.6477ZM32.5123 141.402C32.0198 141.402 31.5878 141.285 31.2161 141.051C30.8468 140.816 30.5579 140.489 30.3496 140.067C30.1436 139.646 30.0407 139.153 30.0407 138.59C30.0407 138.022 30.1436 137.526 30.3496 137.102C30.5579 136.678 30.8468 136.349 31.2161 136.115C31.5878 135.88 32.0198 135.763 32.5123 135.763C33.0047 135.763 33.4355 135.88 33.8049 136.115C34.1766 136.349 34.4654 136.678 34.6713 137.102C34.8797 137.526 34.9838 138.022 34.9838 138.59C34.9838 139.153 34.8797 139.646 34.6713 140.067C34.4654 140.489 34.1766 140.816 33.8049 141.051C33.4355 141.285 33.0047 141.402 32.5123 141.402ZM32.5123 140.649C32.8863 140.649 33.1941 140.554 33.4355 140.362C33.677 140.17 33.8558 139.918 33.9718 139.605C34.0878 139.293 34.1458 138.954 34.1458 138.59C34.1458 138.225 34.0878 137.886 33.9718 137.571C33.8558 137.256 33.677 137.001 33.4355 136.807C33.1941 136.613 32.8863 136.516 32.5123 136.516C32.1382 136.516 31.8304 136.613 31.589 136.807C31.3475 137.001 31.1687 137.256 31.0527 137.571C30.9367 137.886 30.8787 138.225 30.8787 138.59C30.8787 138.954 30.9367 139.293 31.0527 139.605C31.1687 139.918 31.3475 140.17 31.589 140.362C31.8304 140.554 32.1382 140.649 32.5123 140.649ZM36.2631 141.289V135.834H37.0728V136.686H37.1438C37.2575 136.395 37.4409 136.169 37.6942 136.008C37.9476 135.845 38.2518 135.763 38.6069 135.763C38.9667 135.763 39.2662 135.845 39.5053 136.008C39.7468 136.169 39.935 136.395 40.07 136.686H40.1268C40.2665 136.405 40.476 136.181 40.7553 136.015C41.0347 135.847 41.3697 135.763 41.7603 135.763C42.248 135.763 42.6469 135.916 42.957 136.221C43.2672 136.524 43.4222 136.997 43.4222 137.638V141.289H42.5842V137.638C42.5842 137.236 42.4741 136.948 42.2539 136.775C42.0337 136.602 41.7745 136.516 41.4762 136.516C41.0927 136.516 40.7956 136.632 40.5849 136.864C40.3742 137.094 40.2688 137.385 40.2688 137.738V141.289H39.4165V137.553C39.4165 137.243 39.3159 136.993 39.1147 136.804C38.9135 136.612 38.6542 136.516 38.337 136.516C38.1192 136.516 37.9156 136.574 37.7262 136.69C37.5392 136.806 37.3877 136.967 37.2717 137.173C37.158 137.377 37.1012 137.612 37.1012 137.88V141.289H36.2631ZM47.2415 141.402C46.7159 141.402 46.2625 141.286 45.8814 141.054C45.5026 140.82 45.2102 140.493 45.0043 140.074C44.8007 139.653 44.6989 139.163 44.6989 138.604C44.6989 138.045 44.8007 137.553 45.0043 137.127C45.2102 136.698 45.4967 136.364 45.8636 136.125C46.233 135.884 46.6638 135.763 47.1562 135.763C47.4403 135.763 47.7209 135.81 47.9979 135.905C48.2749 136 48.527 136.154 48.7543 136.367C48.9815 136.578 49.1626 136.857 49.2976 137.205C49.4325 137.553 49.5 137.981 49.5 138.49V138.846H45.2955V138.121H48.6477C48.6477 137.813 48.5862 137.539 48.4631 137.297C48.3423 137.056 48.1695 136.865 47.9446 136.725C47.7221 136.586 47.4593 136.516 47.1562 136.516C46.8224 136.516 46.5336 136.599 46.2898 136.765C46.0483 136.928 45.8625 137.141 45.7322 137.404C45.602 137.667 45.5369 137.948 45.5369 138.249V138.732C45.5369 139.144 45.608 139.493 45.75 139.779C45.8944 140.064 46.0945 140.28 46.3501 140.429C46.6058 140.576 46.9029 140.649 47.2415 140.649C47.4616 140.649 47.6605 140.619 47.8381 140.557C48.018 140.493 48.1731 140.399 48.3033 140.273C48.4335 140.145 48.5341 139.987 48.6051 139.797L49.4148 140.024C49.3295 140.299 49.1863 140.541 48.9851 140.749C48.7839 140.955 48.5353 141.116 48.2393 141.232C47.9434 141.346 47.6108 141.402 47.2415 141.402ZM55.647 141.402C55.1925 141.402 54.7912 141.288 54.4432 141.058C54.0952 140.826 53.8229 140.499 53.6264 140.078C53.4299 139.654 53.3317 139.153 53.3317 138.576C53.3317 138.003 53.4299 137.506 53.6264 137.084C53.8229 136.663 54.0964 136.337 54.4467 136.108C54.7971 135.878 55.2019 135.763 55.6612 135.763C56.0163 135.763 56.2969 135.822 56.5028 135.941C56.7112 136.057 56.8698 136.189 56.9787 136.338C57.09 136.485 57.1764 136.606 57.2379 136.701H57.3089V134.016H58.147V141.289H57.3374V140.451H57.2379C57.1764 140.55 57.0888 140.676 56.9751 140.827C56.8615 140.976 56.6993 141.11 56.4886 141.228C56.2779 141.344 55.9974 141.402 55.647 141.402ZM55.7607 140.649C56.0968 140.649 56.3809 140.562 56.6129 140.387C56.8449 140.209 57.0213 139.964 57.142 139.652C57.2628 139.337 57.3232 138.973 57.3232 138.561C57.3232 138.154 57.264 137.798 57.1456 137.493C57.0272 137.185 56.852 136.946 56.62 136.775C56.388 136.602 56.1016 136.516 55.7607 136.516C55.4055 136.516 55.1096 136.607 54.8729 136.789C54.6385 136.969 54.4621 137.214 54.3438 137.524C54.2277 137.832 54.1697 138.178 54.1697 138.561C54.1697 138.95 54.2289 139.302 54.3473 139.62C54.468 139.935 54.6456 140.185 54.88 140.373C55.1167 140.557 55.4103 140.649 55.7607 140.649ZM62.0142 141.402C61.5218 141.402 61.0897 141.285 60.718 141.051C60.3487 140.816 60.0599 140.489 59.8516 140.067C59.6456 139.646 59.5426 139.153 59.5426 138.59C59.5426 138.022 59.6456 137.526 59.8516 137.102C60.0599 136.678 60.3487 136.349 60.718 136.115C61.0897 135.88 61.5218 135.763 62.0142 135.763C62.5066 135.763 62.9375 135.88 63.3068 136.115C63.6785 136.349 63.9673 136.678 64.1733 137.102C64.3816 137.526 64.4858 138.022 64.4858 138.59C64.4858 139.153 64.3816 139.646 64.1733 140.067C63.9673 140.489 63.6785 140.816 63.3068 141.051C62.9375 141.285 62.5066 141.402 62.0142 141.402ZM62.0142 140.649C62.3883 140.649 62.696 140.554 62.9375 140.362C63.179 140.17 63.3577 139.918 63.4737 139.605C63.5897 139.293 63.6477 138.954 63.6477 138.59C63.6477 138.225 63.5897 137.886 63.4737 137.571C63.3577 137.256 63.179 137.001 62.9375 136.807C62.696 136.613 62.3883 136.516 62.0142 136.516C61.6402 136.516 61.3324 136.613 61.0909 136.807C60.8494 137.001 60.6707 137.256 60.5547 137.571C60.4387 137.886 60.3807 138.225 60.3807 138.59C60.3807 138.954 60.4387 139.293 60.5547 139.605C60.6707 139.918 60.8494 140.17 61.0909 140.362C61.3324 140.554 61.6402 140.649 62.0142 140.649ZM70.9498 135.834V136.544H68.123V135.834H70.9498ZM68.9469 134.527H69.785V139.726C69.785 139.963 69.8193 140.14 69.888 140.259C69.959 140.375 70.0489 140.453 70.1578 140.493C70.2691 140.531 70.3863 140.55 70.5094 140.55C70.6017 140.55 70.6775 140.545 70.7367 140.536C70.7959 140.524 70.8432 140.515 70.8787 140.507L71.0492 141.26C70.9924 141.282 70.9131 141.303 70.8113 141.324C70.7095 141.348 70.5804 141.36 70.4242 141.36C70.1874 141.36 69.9554 141.309 69.7282 141.207C69.5033 141.105 69.3162 140.95 69.1671 140.742C69.0203 140.533 68.9469 140.271 68.9469 139.953V134.527ZM72.2104 141.289V135.834H73.0485V141.289H72.2104ZM72.6365 134.925C72.4732 134.925 72.3323 134.869 72.214 134.758C72.098 134.647 72.04 134.513 72.04 134.357C72.04 134.201 72.098 134.067 72.214 133.956C72.3323 133.844 72.4732 133.789 72.6365 133.789C72.7999 133.789 72.9396 133.844 73.0556 133.956C73.1739 134.067 73.2331 134.201 73.2331 134.357C73.2331 134.513 73.1739 134.647 73.0556 134.758C72.9396 134.869 72.7999 134.925 72.6365 134.925ZM76.9556 135.834V136.544H74.1289V135.834H76.9556ZM74.9528 134.527H75.7908V139.726C75.7908 139.963 75.8252 140.14 75.8938 140.259C75.9648 140.375 76.0548 140.453 76.1637 140.493C76.275 140.531 76.3922 140.55 76.5153 140.55C76.6076 140.55 76.6834 140.545 76.7425 140.536C76.8017 140.524 76.8491 140.515 76.8846 140.507L77.055 141.26C76.9982 141.282 76.9189 141.303 76.8171 141.324C76.7153 141.348 76.5863 141.36 76.43 141.36C76.1933 141.36 75.9613 141.309 75.734 141.207C75.5091 141.105 75.3221 140.95 75.1729 140.742C75.0262 140.533 74.9528 140.271 74.9528 139.953V134.527ZM81.6538 139.059V135.834H82.4918V141.289H81.6538V140.365H81.5969C81.4691 140.642 81.2702 140.878 81.0004 141.072C80.7305 141.264 80.3896 141.36 79.9776 141.36C79.6367 141.36 79.3337 141.285 79.0685 141.136C78.8034 140.984 78.5951 140.757 78.4435 140.454C78.292 140.149 78.2163 139.764 78.2163 139.3V135.834H79.0543V139.243C79.0543 139.641 79.1656 139.958 79.3881 140.195C79.613 140.432 79.8995 140.55 80.2475 140.55C80.4558 140.55 80.6677 140.497 80.8832 140.39C81.101 140.284 81.2833 140.12 81.43 139.9C81.5792 139.68 81.6538 139.399 81.6538 139.059ZM84.8649 134.016V141.289H84.0268V134.016H84.8649ZM88.005 141.417C87.6593 141.417 87.3456 141.351 87.0639 141.221C86.7822 141.089 86.5585 140.898 86.3928 140.649C86.227 140.399 86.1442 140.096 86.1442 139.74C86.1442 139.428 86.2057 139.175 86.3288 138.98C86.4519 138.784 86.6165 138.63 86.8224 138.519C87.0284 138.408 87.2557 138.325 87.5043 138.27C87.7552 138.213 88.0073 138.168 88.2607 138.135C88.5921 138.093 88.8608 138.061 89.0668 138.039C89.2751 138.016 89.4266 137.977 89.5213 137.922C89.6184 137.868 89.6669 137.773 89.6669 137.638V137.61C89.6669 137.259 89.571 136.987 89.3793 136.793C89.1899 136.599 88.9022 136.502 88.5163 136.502C88.1162 136.502 87.8026 136.589 87.5753 136.765C87.348 136.94 87.1882 137.127 87.0959 137.326L86.3004 137.042C86.4425 136.71 86.6319 136.452 86.8686 136.267C87.1077 136.08 87.3681 135.95 87.6499 135.877C87.9339 135.801 88.2133 135.763 88.4879 135.763C88.6631 135.763 88.8643 135.784 89.0916 135.827C89.3213 135.867 89.5426 135.951 89.7557 136.079C89.9711 136.207 90.1499 136.4 90.2919 136.658C90.4339 136.916 90.505 137.262 90.505 137.695V141.289H89.6669V140.55H89.6243C89.5675 140.668 89.4728 140.795 89.3402 140.93C89.2076 141.065 89.0313 141.18 88.8111 141.274C88.5909 141.369 88.3222 141.417 88.005 141.417ZM88.1328 140.664C88.4643 140.664 88.7436 140.599 88.9709 140.468C89.2005 140.338 89.3733 140.17 89.4893 139.964C89.6077 139.758 89.6669 139.542 89.6669 139.314V138.547C89.6314 138.59 89.5533 138.629 89.4325 138.664C89.3142 138.698 89.1768 138.727 89.0206 138.753C88.8667 138.777 88.7164 138.798 88.5696 138.817C88.4252 138.834 88.308 138.848 88.218 138.86C88.0002 138.888 87.7966 138.934 87.6072 138.998C87.4202 139.06 87.2687 139.153 87.1527 139.279C87.0391 139.402 86.9822 139.57 86.9822 139.783C86.9822 140.074 87.09 140.294 87.3054 140.444C87.5232 140.59 87.799 140.664 88.1328 140.664ZM92.0346 141.289V135.834H92.8443V136.658H92.9011C93.0005 136.388 93.1805 136.169 93.4409 136.001C93.7013 135.833 93.9949 135.749 94.3216 135.749C94.3831 135.749 94.46 135.75 94.5524 135.752C94.6447 135.755 94.7145 135.758 94.7619 135.763V136.615C94.7335 136.608 94.6684 136.598 94.5666 136.583C94.4672 136.567 94.3618 136.559 94.2505 136.559C93.9854 136.559 93.7486 136.614 93.5403 136.725C93.3343 136.834 93.171 136.986 93.0502 137.18C92.9319 137.372 92.8727 137.591 92.8727 137.837V141.289H92.0346Z" fill="white"/>
<g filter="url(#filter4_di_3402_188)">
<path d="M22.8849 151.107H25.5398L28.3438 157.948H28.4631L31.267 151.107H33.9219V161.289H31.8338V154.662H31.7493L29.1143 161.239H27.6925L25.0575 154.637H24.973V161.289H22.8849V151.107ZM37.4505 161.289H35.1436L38.6586 151.107H41.4327L44.9426 161.289H42.6358L40.0854 153.434H40.0059L37.4505 161.289ZM37.3063 157.287H42.7551V158.967H37.3063V157.287ZM44.5325 151.107H46.9437L49.2654 155.492H49.3649L51.6866 151.107H54.0978L50.3841 157.689V161.289H48.2463V157.689L44.5325 151.107ZM55.2736 161.289V151.107H57.4263V155.596H57.5605L61.2246 151.107H63.8049L60.0265 155.666L63.8496 161.289H61.2743L58.4853 157.103L57.4263 158.395V161.289H55.2736ZM68.1662 161.289V151.107H72.2429C72.992 151.107 73.6167 151.218 74.1172 151.44C74.6177 151.662 74.9938 151.97 75.2457 152.365C75.4976 152.756 75.6236 153.207 75.6236 153.717C75.6236 154.115 75.544 154.464 75.3849 154.766C75.2259 155.064 75.0071 155.31 74.7287 155.502C74.4536 155.691 74.1387 155.825 73.7841 155.904V156.004C74.1719 156.02 74.5348 156.13 74.8729 156.332C75.2143 156.534 75.491 156.818 75.7031 157.182C75.9152 157.543 76.0213 157.974 76.0213 158.475C76.0213 159.015 75.8871 159.497 75.6186 159.922C75.3535 160.342 74.9607 160.676 74.4403 160.921C73.92 161.166 73.2786 161.289 72.5163 161.289H68.1662ZM70.3189 159.529H72.0739C72.6738 159.529 73.1113 159.414 73.3864 159.186C73.6615 158.954 73.799 158.645 73.799 158.261C73.799 157.979 73.7311 157.731 73.5952 157.515C73.4593 157.3 73.2654 157.131 73.0135 157.008C72.7649 156.886 72.4683 156.824 72.1236 156.824H70.3189V159.529ZM70.3189 155.368H71.9148C72.2098 155.368 72.4716 155.316 72.7003 155.213C72.9323 155.107 73.1146 154.958 73.2472 154.766C73.383 154.574 73.451 154.343 73.451 154.075C73.451 153.707 73.3201 153.41 73.0582 153.185C72.7997 152.96 72.4318 152.847 71.9545 152.847H70.3189V155.368ZM77.4221 161.289V151.107H81.4391C82.208 151.107 82.8643 151.244 83.4078 151.52C83.9547 151.791 84.3707 152.177 84.6557 152.678C84.9441 153.175 85.0882 153.76 85.0882 154.433C85.0882 155.109 84.9424 155.691 84.6507 156.178C84.3591 156.662 83.9365 157.033 83.383 157.292C82.8328 157.55 82.1666 157.679 81.3844 157.679H78.6948V155.949H81.0364C81.4474 155.949 81.7888 155.893 82.0605 155.78C82.3323 155.667 82.5345 155.498 82.6671 155.273C82.803 155.048 82.8709 154.768 82.8709 154.433C82.8709 154.095 82.803 153.81 82.6671 153.578C82.5345 153.346 82.3307 153.17 82.0556 153.051C81.7838 152.928 81.4408 152.867 81.0265 152.867H79.5748V161.289H77.4221ZM82.9206 156.655L85.4512 161.289H83.0748L80.5989 156.655H82.9206ZM88.7623 151.107V161.289H86.6096V151.107H88.7623ZM90.1456 152.882V151.107H98.5078V152.882H95.3906V161.289H93.2628V152.882H90.1456ZM108.777 156.198C108.777 157.308 108.566 158.253 108.145 159.032C107.728 159.81 107.158 160.405 106.435 160.816C105.716 161.224 104.907 161.428 104.009 161.428C103.104 161.428 102.292 161.222 101.573 160.811C100.854 160.4 100.285 159.806 99.8675 159.027C99.4499 158.248 99.2411 157.305 99.2411 156.198C99.2411 155.087 99.4499 154.143 99.8675 153.364C100.285 152.585 100.854 151.992 101.573 151.584C102.292 151.173 103.104 150.968 104.009 150.968C104.907 150.968 105.716 151.173 106.435 151.584C107.158 151.992 107.728 152.585 108.145 153.364C108.566 154.143 108.777 155.087 108.777 156.198ZM106.594 156.198C106.594 155.479 106.486 154.872 106.271 154.378C106.059 153.884 105.759 153.51 105.371 153.255C104.983 152.999 104.529 152.872 104.009 152.872C103.489 152.872 103.034 152.999 102.647 153.255C102.259 153.51 101.957 153.884 101.742 154.378C101.53 154.872 101.424 155.479 101.424 156.198C101.424 156.917 101.53 157.524 101.742 158.017C101.957 158.511 102.259 158.886 102.647 159.141C103.034 159.396 103.489 159.524 104.009 159.524C104.529 159.524 104.983 159.396 105.371 159.141C105.759 158.886 106.059 158.511 106.271 158.017C106.486 157.524 106.594 156.917 106.594 156.198Z" fill="white"/>
</g>
<path d="M22.8807 188.289V181.016H27.2699V181.797H23.7614V184.255H27.0426V185.036H23.7614V187.507H27.3267V188.289H22.8807ZM29.3686 182.834L30.6754 185.064L31.9822 182.834H32.9482L31.1868 185.561L32.9482 188.289H31.9822L30.6754 186.172L29.3686 188.289H28.4027L30.1357 185.561L28.4027 182.834H29.3686ZM34.144 190.334V182.834H34.9537V183.701H35.0531C35.1146 183.606 35.1999 183.485 35.3088 183.338C35.42 183.189 35.5787 183.057 35.7846 182.941C35.993 182.822 36.2747 182.763 36.6298 182.763C37.0891 182.763 37.4939 182.878 37.8443 183.108C38.1947 183.337 38.4681 183.663 38.6646 184.084C38.8611 184.506 38.9593 185.003 38.9593 185.576C38.9593 186.153 38.8611 186.654 38.6646 187.078C38.4681 187.499 38.1958 187.826 37.8478 188.058C37.4998 188.288 37.0985 188.402 36.644 188.402C36.2936 188.402 36.0131 188.344 35.8024 188.228C35.5917 188.11 35.4295 187.976 35.3159 187.827C35.2022 187.676 35.1146 187.55 35.0531 187.451H34.9821V190.334H34.144ZM34.9679 185.561C34.9679 185.973 35.0282 186.337 35.149 186.652C35.2697 186.964 35.4461 187.209 35.6781 187.387C35.9101 187.562 36.1942 187.649 36.5304 187.649C36.8807 187.649 37.1731 187.557 37.4075 187.373C37.6442 187.185 37.8218 186.935 37.9402 186.62C38.0609 186.302 38.1213 185.95 38.1213 185.561C38.1213 185.178 38.0621 184.832 37.9437 184.524C37.8277 184.214 37.6513 183.969 37.4146 183.789C37.1802 183.607 36.8855 183.516 36.5304 183.516C36.1895 183.516 35.903 183.602 35.671 183.775C35.439 183.946 35.2638 184.185 35.1454 184.493C35.027 184.798 34.9679 185.154 34.9679 185.561ZM40.2377 188.289V182.834H41.0758V188.289H40.2377ZM40.6639 181.925C40.5005 181.925 40.3597 181.869 40.2413 181.758C40.1253 181.647 40.0673 181.513 40.0673 181.357C40.0673 181.201 40.1253 181.067 40.2413 180.956C40.3597 180.844 40.5005 180.789 40.6639 180.789C40.8272 180.789 40.9669 180.844 41.0829 180.956C41.2013 181.067 41.2605 181.201 41.2605 181.357C41.2605 181.513 41.2013 181.647 41.0829 181.758C40.9669 181.869 40.8272 181.925 40.6639 181.925ZM42.6108 188.289V182.834H43.4205V183.658H43.4773C43.5767 183.388 43.7566 183.169 44.017 183.001C44.2775 182.833 44.571 182.749 44.8977 182.749C44.9593 182.749 45.0362 182.75 45.1286 182.752C45.2209 182.755 45.2907 182.758 45.3381 182.763V183.615C45.3097 183.608 45.2446 183.598 45.1428 183.583C45.0433 183.567 44.938 183.559 44.8267 183.559C44.5616 183.559 44.3248 183.614 44.1165 183.725C43.9105 183.834 43.7472 183.986 43.6264 184.18C43.508 184.372 43.4489 184.591 43.4489 184.837V188.289H42.6108ZM47.9366 188.417C47.591 188.417 47.2773 188.351 46.9956 188.221C46.7138 188.089 46.4901 187.898 46.3244 187.649C46.1587 187.399 46.0758 187.096 46.0758 186.74C46.0758 186.428 46.1374 186.175 46.2605 185.98C46.3836 185.784 46.5481 185.63 46.7541 185.519C46.96 185.408 47.1873 185.325 47.4359 185.27C47.6868 185.213 47.939 185.168 48.1923 185.135C48.5237 185.093 48.7924 185.061 48.9984 185.039C49.2067 185.016 49.3583 184.977 49.4529 184.922C49.55 184.868 49.5985 184.773 49.5985 184.638V184.61C49.5985 184.259 49.5027 183.987 49.3109 183.793C49.1215 183.599 48.8339 183.502 48.448 183.502C48.0479 183.502 47.7342 183.589 47.5069 183.765C47.2797 183.94 47.1199 184.127 47.0275 184.326L46.2321 184.042C46.3741 183.71 46.5635 183.452 46.8002 183.267C47.0394 183.08 47.2998 182.95 47.5815 182.877C47.8656 182.801 48.1449 182.763 48.4196 182.763C48.5948 182.763 48.796 182.784 49.0233 182.827C49.2529 182.867 49.4743 182.951 49.6873 183.079C49.9028 183.207 50.0815 183.4 50.2235 183.658C50.3656 183.916 50.4366 184.262 50.4366 184.695V188.289H49.5985V187.55H49.5559C49.4991 187.668 49.4044 187.795 49.2718 187.93C49.1393 188.065 48.9629 188.18 48.7427 188.274C48.5225 188.369 48.2538 188.417 47.9366 188.417ZM48.0645 187.664C48.3959 187.664 48.6752 187.599 48.9025 187.468C49.1322 187.338 49.305 187.17 49.421 186.964C49.5394 186.758 49.5985 186.542 49.5985 186.314V185.547C49.563 185.59 49.4849 185.629 49.3642 185.664C49.2458 185.698 49.1085 185.727 48.9522 185.753C48.7984 185.777 48.648 185.798 48.5012 185.817C48.3568 185.834 48.2396 185.848 48.1497 185.86C47.9319 185.888 47.7283 185.934 47.5389 185.998C47.3519 186.06 47.2003 186.153 47.0843 186.279C46.9707 186.402 46.9139 186.57 46.9139 186.783C46.9139 187.074 47.0216 187.294 47.237 187.444C47.4548 187.59 47.7306 187.664 48.0645 187.664ZM54.1822 188.402C53.6708 188.402 53.2305 188.282 52.8612 188.04C52.4918 187.799 52.2077 187.466 52.0089 187.042C51.81 186.618 51.7106 186.134 51.7106 185.59C51.7106 185.036 51.8124 184.547 52.016 184.123C52.2219 183.697 52.5084 183.364 52.8754 183.125C53.2447 182.884 53.6755 182.763 54.168 182.763C54.5515 182.763 54.8971 182.834 55.2049 182.976C55.5127 183.118 55.7648 183.317 55.9613 183.573C56.1578 183.828 56.2797 184.127 56.3271 184.468H55.489C55.4251 184.219 55.283 183.999 55.0629 183.807C54.8451 183.613 54.5515 183.516 54.1822 183.516C53.8555 183.516 53.569 183.601 53.3228 183.772C53.079 183.94 52.8884 184.178 52.7511 184.485C52.6161 184.791 52.5487 185.149 52.5487 185.561C52.5487 185.983 52.6149 186.35 52.7475 186.662C52.8825 186.975 53.0719 187.217 53.3157 187.39C53.5619 187.563 53.8507 187.649 54.1822 187.649C54.4 187.649 54.5977 187.612 54.7752 187.536C54.9528 187.46 55.1031 187.351 55.2262 187.209C55.3493 187.067 55.4369 186.897 55.489 186.698H56.3271C56.2797 187.02 56.1625 187.31 55.9755 187.568C55.7908 187.823 55.5458 188.027 55.2404 188.179C54.9374 188.328 54.5846 188.402 54.1822 188.402ZM53.7844 188.26H54.4805L54.4237 188.544C54.6083 188.573 54.7776 188.65 54.9315 188.775C55.0853 188.903 55.1623 189.105 55.1623 189.382C55.1623 189.688 55.0356 189.936 54.7823 190.128C54.5314 190.322 54.1609 190.419 53.6708 190.419L53.6424 189.865C53.8626 189.865 54.0449 189.83 54.1893 189.759C54.3361 189.69 54.4094 189.574 54.4094 189.411C54.4094 189.248 54.3491 189.136 54.2283 189.077C54.1076 189.018 53.9123 188.978 53.6424 188.956L53.7844 188.26ZM59.1573 188.417C58.8117 188.417 58.498 188.351 58.2163 188.221C57.9345 188.089 57.7108 187.898 57.5451 187.649C57.3794 187.399 57.2965 187.096 57.2965 186.74C57.2965 186.428 57.3581 186.175 57.4812 185.98C57.6043 185.784 57.7688 185.63 57.9748 185.519C58.1808 185.408 58.408 185.325 58.6566 185.27C58.9076 185.213 59.1597 185.168 59.413 185.135C59.7444 185.093 60.0131 185.061 60.2191 185.039C60.4274 185.016 60.579 184.977 60.6737 184.922C60.7707 184.868 60.8192 184.773 60.8192 184.638V184.61C60.8192 184.259 60.7234 183.987 60.5316 183.793C60.3422 183.599 60.0546 183.502 59.6687 183.502C59.2686 183.502 58.9549 183.589 58.7276 183.765C58.5004 183.94 58.3406 184.127 58.2482 184.326L57.4528 184.042C57.5948 183.71 57.7842 183.452 58.021 183.267C58.2601 183.08 58.5205 182.95 58.8022 182.877C59.0863 182.801 59.3656 182.763 59.6403 182.763C59.8155 182.763 60.0167 182.784 60.244 182.827C60.4736 182.867 60.695 182.951 60.908 183.079C61.1235 183.207 61.3022 183.4 61.4442 183.658C61.5863 183.916 61.6573 184.262 61.6573 184.695V188.289H60.8192V187.55H60.7766C60.7198 187.668 60.6251 187.795 60.4925 187.93C60.36 188.065 60.1836 188.18 59.9634 188.274C59.7433 188.369 59.4746 188.417 59.1573 188.417ZM59.2852 187.664C59.6166 187.664 59.896 187.599 60.1232 187.468C60.3529 187.338 60.5257 187.17 60.6417 186.964C60.7601 186.758 60.8192 186.542 60.8192 186.314V185.547C60.7837 185.59 60.7056 185.629 60.5849 185.664C60.4665 185.698 60.3292 185.727 60.1729 185.753C60.0191 185.777 59.8687 185.798 59.7219 185.817C59.5775 185.834 59.4603 185.848 59.3704 185.86C59.1526 185.888 58.949 185.934 58.7596 185.998C58.5726 186.06 58.421 186.153 58.305 186.279C58.1914 186.402 58.1346 186.57 58.1346 186.783C58.1346 187.074 58.2423 187.294 58.4577 187.444C58.6755 187.59 58.9513 187.664 59.2852 187.664ZM58.6033 182.181L57.9499 182.152C57.9499 181.79 58.0529 181.494 58.2589 181.265C58.4672 181.033 58.7241 180.917 59.0295 180.917C59.1644 180.917 59.284 180.94 59.3881 180.988C59.4923 181.033 59.5917 181.085 59.6864 181.144C59.7811 181.203 59.8782 181.256 59.9776 181.304C60.0794 181.349 60.1942 181.371 60.3221 181.371C60.457 181.371 60.5707 181.319 60.663 181.215C60.7577 181.108 60.805 180.98 60.805 180.831L61.4442 180.888C61.4442 181.257 61.3401 181.551 61.1317 181.769C60.9258 181.987 60.6701 182.096 60.3647 182.096C60.2013 182.096 60.0664 182.073 59.9599 182.028C59.8533 181.981 59.7586 181.927 59.6758 181.868C59.5929 181.809 59.5053 181.757 59.413 181.712C59.3207 181.665 59.207 181.641 59.0721 181.641C58.9371 181.641 58.8247 181.694 58.7347 181.801C58.6471 181.905 58.6033 182.032 58.6033 182.181ZM65.4029 188.402C64.9105 188.402 64.4784 188.285 64.1067 188.051C63.7374 187.816 63.4486 187.489 63.2402 187.067C63.0343 186.646 62.9313 186.153 62.9313 185.59C62.9313 185.022 63.0343 184.526 63.2402 184.102C63.4486 183.678 63.7374 183.349 64.1067 183.115C64.4784 182.88 64.9105 182.763 65.4029 182.763C65.8953 182.763 66.3262 182.88 66.6955 183.115C67.0672 183.349 67.356 183.678 67.562 184.102C67.7703 184.526 67.8745 185.022 67.8745 185.59C67.8745 186.153 67.7703 186.646 67.562 187.067C67.356 187.489 67.0672 187.816 66.6955 188.051C66.3262 188.285 65.8953 188.402 65.4029 188.402ZM65.4029 187.649C65.7769 187.649 66.0847 187.554 66.3262 187.362C66.5676 187.17 66.7464 186.918 66.8624 186.605C66.9784 186.293 67.0364 185.954 67.0364 185.59C67.0364 185.225 66.9784 184.886 66.8624 184.571C66.7464 184.256 66.5676 184.001 66.3262 183.807C66.0847 183.613 65.7769 183.516 65.4029 183.516C65.0288 183.516 64.7211 183.613 64.4796 183.807C64.2381 184.001 64.0594 184.256 63.9434 184.571C63.8274 184.886 63.7694 185.225 63.7694 185.59C63.7694 185.954 63.8274 186.293 63.9434 186.605C64.0594 186.918 64.2381 187.17 64.4796 187.362C64.7211 187.554 65.0288 187.649 65.4029 187.649Z" fill="white"/>
<g filter="url(#filter5_di_3402_188)">
<path d="M26.8175 208.512C25.9624 208.509 25.2266 208.299 24.6101 207.881C23.9969 207.463 23.5246 206.859 23.1932 206.066C22.8651 205.274 22.7027 204.321 22.706 203.208C22.706 202.097 22.87 201.151 23.1982 200.369C23.5296 199.587 24.0019 198.992 24.6151 198.584C25.2315 198.173 25.9657 197.968 26.8175 197.968C27.6693 197.968 28.4018 198.173 29.0149 198.584C29.6314 198.995 30.1054 199.592 30.4368 200.374C30.7682 201.153 30.9323 202.097 30.929 203.208C30.929 204.325 30.7633 205.279 30.4318 206.071C30.1037 206.864 29.633 207.468 29.0199 207.886C28.4067 208.304 27.6726 208.512 26.8175 208.512ZM26.8175 206.728C27.4008 206.728 27.8665 206.434 28.2145 205.848C28.5625 205.261 28.7348 204.381 28.7315 203.208C28.7315 202.435 28.652 201.792 28.4929 201.279C28.3371 200.765 28.1151 200.379 27.8267 200.12C27.5417 199.862 27.2053 199.733 26.8175 199.733C26.2375 199.733 25.7734 200.023 25.4254 200.603C25.0774 201.183 24.9018 202.051 24.8984 203.208C24.8984 203.99 24.9763 204.643 25.1321 205.167C25.2912 205.687 25.5149 206.078 25.8033 206.34C26.0916 206.598 26.4297 206.728 26.8175 206.728ZM32.464 208.289V206.738L36.0882 203.382C36.3965 203.083 36.655 202.815 36.8638 202.576C37.0759 202.338 37.2367 202.104 37.3461 201.875C37.4554 201.643 37.5101 201.393 37.5101 201.125C37.5101 200.826 37.4422 200.569 37.3063 200.354C37.1704 200.135 36.9848 199.968 36.7495 199.852C36.5141 199.733 36.2473 199.673 35.949 199.673C35.6375 199.673 35.3657 199.736 35.1337 199.862C34.9017 199.988 34.7227 200.168 34.5968 200.404C34.4708 200.639 34.4078 200.919 34.4078 201.244H32.3645C32.3645 200.578 32.5153 199.999 32.8169 199.509C33.1185 199.018 33.5411 198.639 34.0847 198.37C34.6283 198.102 35.2547 197.968 35.964 197.968C36.6931 197.968 37.3278 198.097 37.8681 198.355C38.4116 198.611 38.8342 198.965 39.1358 199.419C39.4374 199.873 39.5882 200.394 39.5882 200.98C39.5882 201.365 39.512 201.744 39.3596 202.119C39.2104 202.493 38.9436 202.909 38.5591 203.367C38.1747 203.821 37.6328 204.366 36.9334 205.002L35.4469 206.459V206.529H39.7225V208.289H32.464ZM45.7369 197.63L42.4556 209.82H40.631L43.9123 197.63H45.7369ZM50.5009 208.428C49.7585 208.428 49.0972 208.3 48.5172 208.045C47.9405 207.787 47.4848 207.432 47.15 206.981C46.8186 206.527 46.6479 206.003 46.638 205.41H48.8056C48.8188 205.659 48.9 205.877 49.0492 206.066C49.2016 206.252 49.4038 206.396 49.6557 206.499C49.9076 206.602 50.191 206.653 50.5059 206.653C50.834 206.653 51.124 206.595 51.3759 206.479C51.6278 206.363 51.825 206.202 51.9675 205.997C52.11 205.791 52.1813 205.554 52.1813 205.286C52.1813 205.014 52.1051 204.774 51.9526 204.565C51.8034 204.353 51.588 204.187 51.3063 204.068C51.0279 203.948 50.6964 203.889 50.312 203.889H49.3624V202.308H50.312C50.6368 202.308 50.9235 202.252 51.1721 202.139C51.4239 202.026 51.6195 201.87 51.7587 201.672C51.8979 201.469 51.9675 201.234 51.9675 200.966C51.9675 200.71 51.9062 200.487 51.7836 200.294C51.6642 200.099 51.4952 199.946 51.2765 199.837C51.061 199.728 50.8091 199.673 50.5208 199.673C50.2291 199.673 49.9623 199.726 49.7203 199.832C49.4784 199.935 49.2845 200.082 49.1387 200.274C48.9928 200.467 48.915 200.692 48.905 200.951H46.8418C46.8517 200.364 47.0191 199.847 47.3439 199.399C47.6687 198.952 48.1062 198.602 48.6564 198.35C49.2099 198.095 49.8347 197.968 50.5307 197.968C51.2334 197.968 51.8482 198.095 52.3752 198.35C52.9022 198.606 53.3115 198.95 53.6032 199.385C53.8981 199.815 54.044 200.299 54.0407 200.836C54.044 201.406 53.8667 201.882 53.5087 202.263C53.1541 202.644 52.6917 202.886 52.1216 202.989V203.069C52.8707 203.165 53.4408 203.425 53.8319 203.849C54.2263 204.27 54.4218 204.797 54.4185 205.43C54.4218 206.01 54.2544 206.525 53.9164 206.976C53.5816 207.427 53.1193 207.782 52.5293 208.04C51.9393 208.299 51.2632 208.428 50.5009 208.428ZM59.9581 208.512C59.103 208.509 58.3672 208.299 57.7507 207.881C57.1375 207.463 56.6652 206.859 56.3338 206.066C56.0057 205.274 55.8433 204.321 55.8466 203.208C55.8466 202.097 56.0107 201.151 56.3388 200.369C56.6702 199.587 57.1425 198.992 57.7557 198.584C58.3722 198.173 59.1063 197.968 59.9581 197.968C60.8099 197.968 61.5424 198.173 62.1555 198.584C62.772 198.995 63.246 199.592 63.5774 200.374C63.9089 201.153 64.0729 202.097 64.0696 203.208C64.0696 204.325 63.9039 205.279 63.5724 206.071C63.2443 206.864 62.7737 207.468 62.1605 207.886C61.5473 208.304 60.8132 208.512 59.9581 208.512ZM59.9581 206.728C60.5414 206.728 61.0071 206.434 61.3551 205.848C61.7031 205.261 61.8755 204.381 61.8722 203.208C61.8722 202.435 61.7926 201.792 61.6335 201.279C61.4777 200.765 61.2557 200.379 60.9673 200.12C60.6823 199.862 60.3459 199.733 59.9581 199.733C59.3781 199.733 58.9141 200.023 58.5661 200.603C58.218 201.183 58.0424 202.051 58.0391 203.208C58.0391 203.99 58.117 204.643 58.2727 205.167C58.4318 205.687 58.6555 206.078 58.9439 206.34C59.2322 206.598 59.5703 206.728 59.9581 206.728Z" fill="white"/>
</g>
<path d="M179.623 183.289H178.743C178.691 183.035 178.599 182.813 178.469 182.621C178.341 182.429 178.185 182.268 178 182.138C177.818 182.006 177.616 181.906 177.393 181.84C177.171 181.774 176.939 181.74 176.697 181.74C176.257 181.74 175.858 181.852 175.5 182.074C175.145 182.297 174.862 182.625 174.652 183.058C174.443 183.491 174.339 184.023 174.339 184.652C174.339 185.282 174.443 185.814 174.652 186.247C174.862 186.68 175.145 187.008 175.5 187.23C175.858 187.453 176.257 187.564 176.697 187.564C176.939 187.564 177.171 187.531 177.393 187.465C177.616 187.399 177.818 187.3 178 187.17C178.185 187.038 178.341 186.875 178.469 186.684C178.599 186.489 178.691 186.267 178.743 186.016H179.623C179.557 186.388 179.436 186.72 179.261 187.014C179.086 187.307 178.868 187.557 178.608 187.763C178.347 187.967 178.055 188.122 177.731 188.228C177.409 188.335 177.064 188.388 176.697 188.388C176.077 188.388 175.525 188.237 175.042 187.934C174.559 187.631 174.179 187.2 173.902 186.641C173.625 186.082 173.487 185.419 173.487 184.652C173.487 183.885 173.625 183.222 173.902 182.664C174.179 182.105 174.559 181.674 175.042 181.371C175.525 181.068 176.077 180.917 176.697 180.917C177.064 180.917 177.409 180.97 177.731 181.076C178.055 181.183 178.347 181.339 178.608 181.545C178.868 181.749 179.086 181.997 179.261 182.291C179.436 182.582 179.557 182.915 179.623 183.289ZM181.345 181.016L183.504 187.138H183.589L185.748 181.016H186.671L184.001 188.289H183.092L180.421 181.016H181.345ZM193.315 183.289H192.434C192.382 183.035 192.291 182.813 192.161 182.621C192.033 182.429 191.877 182.268 191.692 182.138C191.51 182.006 191.307 181.906 191.085 181.84C190.862 181.774 190.63 181.74 190.389 181.74C189.948 181.74 189.549 181.852 189.192 182.074C188.837 182.297 188.554 182.625 188.343 183.058C188.135 183.491 188.031 184.023 188.031 184.652C188.031 185.282 188.135 185.814 188.343 186.247C188.554 186.68 188.837 187.008 189.192 187.23C189.549 187.453 189.948 187.564 190.389 187.564C190.63 187.564 190.862 187.531 191.085 187.465C191.307 187.399 191.51 187.3 191.692 187.17C191.877 187.038 192.033 186.875 192.161 186.684C192.291 186.489 192.382 186.267 192.434 186.016H193.315C193.248 186.388 193.128 186.72 192.953 187.014C192.777 187.307 192.56 187.557 192.299 187.763C192.039 187.967 191.746 188.122 191.422 188.228C191.1 188.335 190.756 188.388 190.389 188.388C189.768 188.388 189.217 188.237 188.734 187.934C188.251 187.631 187.871 187.2 187.594 186.641C187.317 186.082 187.178 185.419 187.178 184.652C187.178 183.885 187.317 183.222 187.594 182.664C187.871 182.105 188.251 181.674 188.734 181.371C189.217 181.068 189.768 180.917 190.389 180.917C190.756 180.917 191.1 180.97 191.422 181.076C191.746 181.183 192.039 181.339 192.299 181.545C192.56 181.749 192.777 181.997 192.953 182.291C193.128 182.582 193.248 182.915 193.315 183.289Z" fill="white"/>
<path d="M173.716 208.289V206.738L177.34 203.382C177.648 203.083 177.907 202.815 178.116 202.576C178.328 202.338 178.488 202.104 178.598 201.875C178.707 201.643 178.762 201.393 178.762 201.125C178.762 200.826 178.694 200.569 178.558 200.354C178.422 200.135 178.236 199.968 178.001 199.852C177.766 199.733 177.499 199.673 177.201 199.673C176.889 199.673 176.617 199.736 176.385 199.862C176.153 199.988 175.974 200.168 175.848 200.404C175.723 200.639 175.66 200.919 175.66 201.244H173.616C173.616 200.578 173.767 199.999 174.069 199.509C174.37 199.018 174.793 198.639 175.336 198.37C175.88 198.102 176.506 197.968 177.216 197.968C177.945 197.968 178.58 198.097 179.12 198.355C179.663 198.611 180.086 198.965 180.388 199.419C180.689 199.873 180.84 200.394 180.84 200.98C180.84 201.365 180.764 201.744 180.611 202.119C180.462 202.493 180.195 202.909 179.811 203.367C179.426 203.821 178.884 204.366 178.185 205.002L176.699 206.459V206.529H180.974V208.289H173.716ZM186.298 208.428C185.555 208.428 184.894 208.3 184.314 208.045C183.737 207.787 183.281 207.432 182.947 206.981C182.615 206.527 182.445 206.003 182.435 205.41H184.602C184.615 205.659 184.697 205.877 184.846 206.066C184.998 206.252 185.2 206.396 185.452 206.499C185.704 206.602 185.988 206.653 186.302 206.653C186.631 206.653 186.921 206.595 187.173 206.479C187.424 206.363 187.622 206.202 187.764 205.997C187.907 205.791 187.978 205.554 187.978 205.286C187.978 205.014 187.902 204.774 187.749 204.565C187.6 204.353 187.385 204.187 187.103 204.068C186.825 203.948 186.493 203.889 186.109 203.889H185.159V202.308H186.109C186.433 202.308 186.72 202.252 186.969 202.139C187.221 202.026 187.416 201.87 187.555 201.672C187.695 201.469 187.764 201.234 187.764 200.966C187.764 200.71 187.703 200.487 187.58 200.294C187.461 200.099 187.292 199.946 187.073 199.837C186.858 199.728 186.606 199.673 186.317 199.673C186.026 199.673 185.759 199.726 185.517 199.832C185.275 199.935 185.081 200.082 184.935 200.274C184.789 200.467 184.712 200.692 184.702 200.951H182.638C182.648 200.364 182.816 199.847 183.141 199.399C183.465 198.952 183.903 198.602 184.453 198.35C185.007 198.095 185.631 197.968 186.327 197.968C187.03 197.968 187.645 198.095 188.172 198.35C188.699 198.606 189.108 198.95 189.4 199.385C189.695 199.815 189.841 200.299 189.837 200.836C189.841 201.406 189.663 201.882 189.305 202.263C188.951 202.644 188.488 202.886 187.918 202.989V203.069C188.667 203.165 189.237 203.425 189.628 203.849C190.023 204.27 190.218 204.797 190.215 205.43C190.218 206.01 190.051 206.525 189.713 206.976C189.378 207.427 188.916 207.782 188.326 208.04C187.736 208.299 187.06 208.428 186.298 208.428ZM195.755 208.512C194.9 208.509 194.164 208.299 193.547 207.881C192.934 207.463 192.462 206.859 192.13 206.066C191.802 205.274 191.64 204.321 191.643 203.208C191.643 202.097 191.807 201.151 192.135 200.369C192.467 199.587 192.939 198.992 193.552 198.584C194.169 198.173 194.903 197.968 195.755 197.968C196.607 197.968 197.339 198.173 197.952 198.584C198.569 198.995 199.043 199.592 199.374 200.374C199.705 201.153 199.87 202.097 199.866 203.208C199.866 204.325 199.701 205.279 199.369 206.071C199.041 206.864 198.57 207.468 197.957 207.886C197.344 208.304 196.61 208.512 195.755 208.512ZM195.755 206.728C196.338 206.728 196.804 206.434 197.152 205.848C197.5 205.261 197.672 204.381 197.669 203.208C197.669 202.435 197.589 201.792 197.43 201.279C197.274 200.765 197.052 200.379 196.764 200.12C196.479 199.862 196.143 199.733 195.755 199.733C195.175 199.733 194.711 200.023 194.363 200.603C194.015 201.183 193.839 202.051 193.836 203.208C193.836 203.99 193.914 204.643 194.069 205.167C194.228 205.687 194.452 206.078 194.741 206.34C195.029 206.598 195.367 206.728 195.755 206.728Z" fill="white"/>
<g opacity="0.7">
<rect x="305.23" y="181.059" width="36.3209" height="27.4591" rx="4.20321" fill="white" fill-opacity="0.26" stroke="white" stroke-width="0.898396"/>
<path d="M305.362 189.333H315.248C316.533 189.333 317.575 190.375 317.575 191.659V196.166M317.575 208.408V203M317.575 203V196.166M317.575 203H305.362M317.575 196.166H305.362" stroke="white" stroke-width="0.898396"/>
<path d="M341.418 189.333H329.787M329.787 189.333V196.166M329.787 189.333V181.191M329.787 208.408V203M329.787 203V196.166M329.787 203H341.418M329.787 196.166H341.418" stroke="white" stroke-width="0.898396"/>
</g>
<defs>
<filter id="filter0_b_3402_188" x="-22.1752" y="-22.1752" width="408.35" height="278.35" filterUnits="userSpaceOnUse" color-interpolation-filters="sRGB">
<feFlood flood-opacity="0" result="BackgroundImageFix"/>
<feGaussianBlur in="BackgroundImageFix" stdDeviation="11.4545"/>
<feComposite in2="SourceAlpha" operator="in" result="effect1_backgroundBlur_3402_188"/>
<feBlend mode="normal" in="SourceGraphic" in2="effect1_backgroundBlur_3402_188" result="shape"/>
</filter>
<filter id="filter1_f_3402_188" x="45.2627" y="-223.286" width="468.777" height="351.306" filterUnits="userSpaceOnUse" color-interpolation-filters="sRGB">
<feFlood flood-opacity="0" result="BackgroundImageFix"/>
<feBlend mode="normal" in="SourceGraphic" in2="BackgroundImageFix" result="shape"/>
<feGaussianBlur stdDeviation="27.9144" result="effect1_foregroundBlur_3402_188"/>
</filter>
<filter id="filter2_f_3402_188" x="-7.12112" y="-257.536" width="468.777" height="351.306" filterUnits="userSpaceOnUse" color-interpolation-filters="sRGB">
<feFlood flood-opacity="0" result="BackgroundImageFix"/>
<feBlend mode="normal" in="SourceGraphic" in2="BackgroundImageFix" result="shape"/>
<feGaussianBlur stdDeviation="27.9144" result="effect1_foregroundBlur_3402_188"/>
</filter>
<filter id="filter3_di_3402_188" x="19.9421" y="90.3816" width="282.08" height="24.4939" filterUnits="userSpaceOnUse" color-interpolation-filters="sRGB">
<feFlood flood-opacity="0" result="BackgroundImageFix"/>
<feColorMatrix in="SourceAlpha" type="matrix" values="0 0 0 0 0 0 0 0 0 0 0 0 0 0 0 0 0 0 127 0" result="hardAlpha"/>
<feOffset dy="1.28342"/>
<feGaussianBlur stdDeviation="1.60428"/>
<feComposite in2="hardAlpha" operator="out"/>
<feColorMatrix type="matrix" values="0 0 0 0 0.0916667 0 0 0 0 0.0916667 0 0 0 0 0.0916667 0 0 0 0.4 0"/>
<feBlend mode="normal" in2="BackgroundImageFix" result="effect1_dropShadow_3402_188"/>
<feBlend mode="normal" in="SourceGraphic" in2="effect1_dropShadow_3402_188" result="shape"/>
<feColorMatrix in="SourceAlpha" type="matrix" values="0 0 0 0 0 0 0 0 0 0 0 0 0 0 0 0 0 0 127 0" result="hardAlpha"/>
<feOffset dy="2.56684"/>
<feGaussianBlur stdDeviation="1.28342"/>
<feComposite in2="hardAlpha" operator="arithmetic" k2="-1" k3="1"/>
<feColorMatrix type="matrix" values="0 0 0 0 0.683333 0 0 0 0 0.683333 0 0 0 0 0.683333 0 0 0 0.25 0"/>
<feBlend mode="normal" in2="shape" result="effect2_innerShadow_3402_188"/>
</filter>
<filter id="filter4_di_3402_188" x="20.3182" y="150.968" width="91.0253" height="15.5939" filterUnits="userSpaceOnUse" color-interpolation-filters="sRGB">
<feFlood flood-opacity="0" result="BackgroundImageFix"/>
<feColorMatrix in="SourceAlpha" type="matrix" values="0 0 0 0 0 0 0 0 0 0 0 0 0 0 0 0 0 0 127 0" result="hardAlpha"/>
<feOffset dy="2.56684"/>
<feGaussianBlur stdDeviation="1.28342"/>
<feComposite in2="hardAlpha" operator="out"/>
<feColorMatrix type="matrix" values="0 0 0 0 0.0875 0 0 0 0 0.0875 0 0 0 0 0.0875 0 0 0 0.16 0"/>
<feBlend mode="normal" in2="BackgroundImageFix" result="effect1_dropShadow_3402_188"/>
<feBlend mode="normal" in="SourceGraphic" in2="effect1_dropShadow_3402_188" result="shape"/>
<feColorMatrix in="SourceAlpha" type="matrix" values="0 0 0 0 0 0 0 0 0 0 0 0 0 0 0 0 0 0 127 0" result="hardAlpha"/>
<feOffset dy="2.56684"/>
<feGaussianBlur stdDeviation="1.28342"/>
<feComposite in2="hardAlpha" operator="arithmetic" k2="-1" k3="1"/>
<feColorMatrix type="matrix" values="0 0 0 0 0.682353 0 0 0 0 0.682353 0 0 0 0 0.682353 0 0 0 0.25 0"/>
<feBlend mode="normal" in2="shape" result="effect2_innerShadow_3402_188"/>
</filter>
<filter id="filter5_di_3402_188" x="20.1341" y="197.63" width="46.5072" height="17.324" filterUnits="userSpaceOnUse" color-interpolation-filters="sRGB">
<feFlood flood-opacity="0" result="BackgroundImageFix"/>
<feColorMatrix in="SourceAlpha" type="matrix" values="0 0 0 0 0 0 0 0 0 0 0 0 0 0 0 0 0 0 127 0" result="hardAlpha"/>
<feOffset dy="2.56684"/>
<feGaussianBlur stdDeviation="1.28342"/>
<feComposite in2="hardAlpha" operator="out"/>
<feColorMatrix type="matrix" values="0 0 0 0 0.0875 0 0 0 0 0.0875 0 0 0 0 0.0875 0 0 0 0.16 0"/>
<feBlend mode="normal" in2="BackgroundImageFix" result="effect1_dropShadow_3402_188"/>
<feBlend mode="normal" in="SourceGraphic" in2="effect1_dropShadow_3402_188" result="shape"/>
<feColorMatrix in="SourceAlpha" type="matrix" values="0 0 0 0 0 0 0 0 0 0 0 0 0 0 0 0 0 0 127 0" result="hardAlpha"/>
<feOffset dy="2.56684"/>
<feGaussianBlur stdDeviation="1.28342"/>
<feComposite in2="hardAlpha" operator="arithmetic" k2="-1" k3="1"/>
<feColorMatrix type="matrix" values="0 0 0 0 0.682353 0 0 0 0 0.682353 0 0 0 0 0.682353 0 0 0 0.25 0"/>
<feBlend mode="normal" in2="shape" result="effect2_innerShadow_3402_188"/>
</filter>
<linearGradient id="paint0_linear_3402_188" x1="2" y1="2" x2="130.405" y2="324.275" gradientUnits="userSpaceOnUse">
<stop stop-color="white" stop-opacity="0.4"/>
<stop offset="1" stop-color="white" stop-opacity="0"/>
</linearGradient>
<radialGradient id="paint1_radial_3402_188" cx="0" cy="0" r="1" gradientUnits="userSpaceOnUse" gradientTransform="translate(2 2) rotate(32.5741) scale(427.2 269.348)">
<stop stop-color="white" stop-opacity="0.7"/>
<stop offset="0.677083" stop-color="#B691FF" stop-opacity="0.4"/>
<stop offset="1" stop-color="white" stop-opacity="0"/>
</radialGradient>
<linearGradient id="paint2_linear_3402_188" x1="351.951" y1="228.167" x2="316.94" y2="84.1868" gradientUnits="userSpaceOnUse">
<stop stop-color="white" stop-opacity="0.32"/>
<stop offset="0.140625" stop-color="#F9FFF5"/>
<stop offset="1" stop-color="white" stop-opacity="0"/>
</linearGradient>
<linearGradient id="paint3_linear_3402_188" x1="357.631" y1="3.74243" x2="323.401" y2="148.648" gradientUnits="userSpaceOnUse">
<stop stop-color="#53555E"/>
<stop offset="1" stop-color="white" stop-opacity="0"/>
</linearGradient>
</defs>
</svg>
