<svg width="32" height="21" viewBox="0 0 32 21" fill="none" xmlns="http://www.w3.org/2000/svg">
<path d="M6.59558 6.81793C6.90347 6.68215 7.23189 6.60973 7.57262 6.60973C9.06419 6.60973 10.3094 8.01102 10.5941 9.87397L12.7083 9.30368C12.2238 6.13902 10.1083 3.75647 7.57262 3.75647C6.99105 3.75647 6.43411 3.88139 5.91138 4.11313L6.59558 6.81793Z" fill="white"/>
<path d="M4.10099 15.881L5.53098 13.7429C4.8933 12.9952 4.49099 11.9035 4.49099 10.6869C4.49099 9.47206 4.8933 8.38036 5.53098 7.63445L4.10099 5.49451C3.01721 6.76544 2.33301 8.62115 2.33301 10.6869C2.33301 12.7544 3.01721 14.6101 4.10099 15.881Z" fill="white"/>
<path d="M10.5941 11.5052C10.3081 13.3664 9.06419 14.7659 7.57399 14.7659C7.23189 14.7659 6.9021 14.6934 6.59558 14.5559L5.91138 17.2643C6.43411 17.4942 6.99242 17.6191 7.57399 17.6191C10.1069 17.6191 12.2211 15.2402 12.7083 12.0792L10.5941 11.5052Z" fill="white"/>
<path d="M14.5883 13.8316C14.514 13.6831 14.415 13.4459 14.3539 13.2703C13.9971 12.242 13.9811 11.1775 14.2811 10.1564C14.6116 9.03569 15.2435 8.17935 16.0604 7.74122C17.0869 7.19266 18.2212 7.29948 19.2055 8.02546C19.8301 8.47083 20.2728 9.1588 20.6091 10.1328C20.6514 10.2577 20.6892 10.3899 20.7271 10.504L14.5883 13.8316ZM16.6384 9.39416C15.9089 9.78341 15.5333 10.6343 15.6119 11.6301L18.6988 9.97713C18.1673 9.20226 17.4771 8.94517 16.6384 9.39416ZM19.0832 12.9897C19.0817 12.9897 19.0817 12.9915 19.0817 12.9915L19.0177 12.9372C18.8327 13.3083 18.5459 13.6107 18.1833 13.8062C17.4932 14.1792 16.8539 14.0832 16.3938 13.5817L16.3516 13.6614C16.3516 13.6614 16.3516 13.6596 16.3501 13.6596L15.5668 15.117C15.7619 15.2854 15.9701 15.4266 16.1885 15.5406C17.0534 15.9878 17.9387 15.9661 18.8109 15.4954C19.4414 15.155 19.9364 14.6372 20.2743 13.98L19.0832 12.9897ZM22.8719 5.59766V13.6976L23.8853 14.2081L23.3102 15.8774L22.1919 15.298C21.9415 15.1622 21.7696 14.9559 21.6415 14.7223C21.5177 14.4851 21.426 14.1574 21.426 13.7193V5.59766H22.8719ZM25.4957 11.6355C25.4957 10.9457 25.7418 10.3265 26.1291 9.90652L25.0895 8.4654C24.3847 9.24027 23.9406 10.3718 23.9406 11.6319C23.9392 12.8938 24.3833 14.0271 25.0866 14.802L26.1248 13.3608C25.7389 12.939 25.4957 12.3235 25.4957 11.6355ZM27.342 13.933C27.1382 13.933 26.9402 13.8895 26.7567 13.8135L26.2602 15.6474C26.5994 15.7887 26.962 15.8665 27.3406 15.8665C28.9859 15.8683 30.359 14.4163 30.6779 12.4882L29.1519 12.1008C28.9787 13.149 28.2346 13.9348 27.342 13.933ZM27.3464 7.40448C26.9693 7.40448 26.6067 7.48052 26.2675 7.61992L26.7596 9.45572C26.9445 9.37968 27.1411 9.33804 27.3449 9.33804C28.239 9.33985 28.9845 10.1292 29.1534 11.1793L30.6794 10.7954C30.3663 8.8637 28.9932 7.40629 27.3464 7.40448Z" fill="white"/>
</svg>
